<svg xmlns="http://www.w3.org/2000/svg" xmlns:xlink="http://www.w3.org/1999/xlink" width="1050" zoomAndPan="magnify" viewBox="0 0 787.5 187.499995" height="250" preserveAspectRatio="xMidYMid meet" version="1.0"><defs><g/><clipPath id="13ad912954"><path d="M 0.796875 0 L 187.917969 0 L 187.917969 187 L 0.796875 187 Z M 0.796875 0 " clip-rule="nonzero"/></clipPath></defs><g fill="#3b65f3" fill-opacity="1"><g transform="translate(243.068594, 149.321621)"><g><path d="M 65.375 0.9375 C 54.53125 0.9375 44.753906 -1.457031 36.046875 -6.25 C 27.335938 -11.050781 20.503906 -17.695312 15.546875 -26.1875 C 10.597656 -34.6875 8.125 -44.203125 8.125 -54.734375 C 8.125 -65.265625 10.597656 -74.78125 15.546875 -83.28125 C 20.503906 -91.78125 27.363281 -98.425781 36.125 -103.21875 C 44.882812 -108.007812 54.6875 -110.40625 65.53125 -110.40625 C 73.65625 -110.40625 81.160156 -109.050781 88.046875 -106.34375 C 94.929688 -103.632812 100.769531 -99.671875 105.5625 -94.453125 L 98.21875 -87.109375 C 89.664062 -95.765625 78.875 -100.09375 65.84375 -100.09375 C 57.1875 -100.09375 49.3125 -98.109375 42.21875 -94.140625 C 35.132812 -90.179688 29.582031 -84.757812 25.5625 -77.875 C 21.550781 -71 19.546875 -63.285156 19.546875 -54.734375 C 19.546875 -46.179688 21.550781 -38.460938 25.5625 -31.578125 C 29.582031 -24.703125 35.132812 -19.285156 42.21875 -15.328125 C 49.3125 -11.367188 57.1875 -9.390625 65.84375 -9.390625 C 78.976562 -9.390625 89.769531 -13.765625 98.21875 -22.515625 L 105.5625 -15.171875 C 100.769531 -9.953125 94.90625 -5.960938 87.96875 -3.203125 C 81.03125 -0.441406 73.5 0.9375 65.375 0.9375 Z M 65.375 0.9375 "/></g></g></g><g fill="#3b65f3" fill-opacity="1"><g transform="translate(355.515777, 149.321621)"><g><path d="M 44.265625 -82.890625 C 54.992188 -82.890625 63.222656 -80.203125 68.953125 -74.828125 C 74.691406 -69.460938 77.5625 -61.515625 77.5625 -50.984375 L 77.5625 0 L 66.9375 0 L 66.9375 -12.828125 C 64.4375 -8.546875 60.757812 -5.207031 55.90625 -2.8125 C 51.0625 -0.414062 45.300781 0.78125 38.625 0.78125 C 29.445312 0.78125 22.144531 -1.40625 16.71875 -5.78125 C 11.300781 -10.164062 8.59375 -15.953125 8.59375 -23.140625 C 8.59375 -30.128906 11.117188 -35.757812 16.171875 -40.03125 C 21.234375 -44.3125 29.289062 -46.453125 40.34375 -46.453125 L 66.46875 -46.453125 L 66.46875 -51.453125 C 66.46875 -58.546875 64.484375 -63.941406 60.515625 -67.640625 C 56.554688 -71.335938 50.769531 -73.1875 43.15625 -73.1875 C 37.945312 -73.1875 32.941406 -72.328125 28.140625 -70.609375 C 23.347656 -68.890625 19.234375 -66.519531 15.796875 -63.5 L 10.796875 -71.78125 C 14.960938 -75.320312 19.960938 -78.054688 25.796875 -79.984375 C 31.640625 -81.921875 37.796875 -82.890625 44.265625 -82.890625 Z M 40.34375 -7.96875 C 46.601562 -7.96875 51.972656 -9.398438 56.453125 -12.265625 C 60.941406 -15.140625 64.28125 -19.285156 66.46875 -24.703125 L 66.46875 -38.15625 L 40.65625 -38.15625 C 26.582031 -38.15625 19.546875 -33.253906 19.546875 -23.453125 C 19.546875 -18.660156 21.367188 -14.878906 25.015625 -12.109375 C 28.671875 -9.347656 33.78125 -7.96875 40.34375 -7.96875 Z M 40.34375 -7.96875 "/></g></g></g><g fill="#3b65f3" fill-opacity="1"><g transform="translate(447.788155, 149.321621)"><g><path d="M 87.109375 -37.6875 L 18.296875 -37.6875 C 18.921875 -29.132812 22.203125 -22.226562 28.140625 -16.96875 C 34.085938 -11.707031 41.597656 -9.078125 50.671875 -9.078125 C 55.773438 -9.078125 60.460938 -9.988281 64.734375 -11.8125 C 69.015625 -13.632812 72.71875 -16.316406 75.84375 -19.859375 L 82.109375 -12.671875 C 78.453125 -8.285156 73.882812 -4.945312 68.40625 -2.65625 C 62.9375 -0.363281 56.921875 0.78125 50.359375 0.78125 C 41.910156 0.78125 34.425781 -1.015625 27.90625 -4.609375 C 21.394531 -8.210938 16.3125 -13.191406 12.65625 -19.546875 C 9.007812 -25.910156 7.1875 -33.101562 7.1875 -41.125 C 7.1875 -49.15625 8.929688 -56.347656 12.421875 -62.703125 C 15.921875 -69.066406 20.71875 -74.019531 26.8125 -77.5625 C 32.914062 -81.113281 39.773438 -82.890625 47.390625 -82.890625 C 54.992188 -82.890625 61.816406 -81.113281 67.859375 -77.5625 C 73.910156 -74.019531 78.65625 -69.09375 82.09375 -62.78125 C 85.539062 -56.476562 87.265625 -49.257812 87.265625 -41.125 Z M 47.390625 -73.34375 C 39.460938 -73.34375 32.8125 -70.8125 27.4375 -65.75 C 22.070312 -60.695312 19.023438 -54.109375 18.296875 -45.984375 L 76.625 -45.984375 C 75.894531 -54.109375 72.84375 -60.695312 67.46875 -65.75 C 62.101562 -70.8125 55.410156 -73.34375 47.390625 -73.34375 Z M 47.390625 -73.34375 "/></g></g></g><g fill="#3b65f3" fill-opacity="1"><g transform="translate(542.250043, 149.321621)"><g><path d="M 26.125 -66.15625 C 28.726562 -71.675781 32.609375 -75.84375 37.765625 -78.65625 C 42.929688 -81.476562 49.316406 -82.890625 56.921875 -82.890625 L 56.921875 -72.09375 L 54.265625 -72.25 C 45.609375 -72.25 38.832031 -69.585938 33.9375 -64.265625 C 29.039062 -58.953125 26.59375 -51.5 26.59375 -41.90625 L 26.59375 0 L 15.484375 0 L 15.484375 -82.265625 L 26.125 -82.265625 Z M 26.125 -66.15625 "/></g></g></g><g fill="#3b65f3" fill-opacity="1"><g transform="translate(604.963989, 149.321621)"><g><path d="M 89.609375 -82.265625 L 89.609375 0 L 78.984375 0 L 78.984375 -15.015625 C 76.054688 -10.003906 72.035156 -6.117188 66.921875 -3.359375 C 61.816406 -0.597656 55.984375 0.78125 49.421875 0.78125 C 38.679688 0.78125 30.207031 -2.210938 24 -8.203125 C 17.800781 -14.203125 14.703125 -22.988281 14.703125 -34.5625 L 14.703125 -82.265625 L 25.796875 -82.265625 L 25.796875 -35.65625 C 25.796875 -27 27.929688 -20.429688 32.203125 -15.953125 C 36.484375 -11.472656 42.585938 -9.234375 50.515625 -9.234375 C 59.171875 -9.234375 66 -11.863281 71 -17.125 C 76.007812 -22.382812 78.515625 -29.707031 78.515625 -39.09375 L 78.515625 -82.265625 Z M 89.609375 -82.265625 "/></g></g></g><g fill="#3b65f3" fill-opacity="1"><g transform="translate(710.217031, 149.321621)"><g><path d="M 37.53125 0.78125 C 30.863281 0.78125 24.476562 -0.179688 18.375 -2.109375 C 12.28125 -4.035156 7.507812 -6.460938 4.0625 -9.390625 L 9.078125 -18.140625 C 12.515625 -15.429688 16.835938 -13.21875 22.046875 -11.5 C 27.265625 -9.78125 32.6875 -8.921875 38.3125 -8.921875 C 45.820312 -8.921875 51.375 -10.09375 54.96875 -12.4375 C 58.5625 -14.78125 60.359375 -18.085938 60.359375 -22.359375 C 60.359375 -25.390625 59.367188 -27.765625 57.390625 -29.484375 C 55.410156 -31.203125 52.910156 -32.503906 49.890625 -33.390625 C 46.867188 -34.273438 42.851562 -35.132812 37.84375 -35.96875 C 31.175781 -37.21875 25.804688 -38.492188 21.734375 -39.796875 C 17.671875 -41.097656 14.203125 -43.3125 11.328125 -46.4375 C 8.460938 -49.570312 7.03125 -53.898438 7.03125 -59.421875 C 7.03125 -66.304688 9.894531 -71.9375 15.625 -76.3125 C 21.363281 -80.695312 29.34375 -82.890625 39.5625 -82.890625 C 44.882812 -82.890625 50.203125 -82.1875 55.515625 -80.78125 C 60.835938 -79.375 65.21875 -77.519531 68.65625 -75.21875 L 63.8125 -66.3125 C 57.03125 -71 48.945312 -73.34375 39.5625 -73.34375 C 32.476562 -73.34375 27.132812 -72.09375 23.53125 -69.59375 C 19.9375 -67.09375 18.140625 -63.804688 18.140625 -59.734375 C 18.140625 -56.609375 19.15625 -54.109375 21.1875 -52.234375 C 23.21875 -50.359375 25.742188 -48.976562 28.765625 -48.09375 C 31.796875 -47.207031 35.96875 -46.296875 41.28125 -45.359375 C 47.851562 -44.109375 53.117188 -42.851562 57.078125 -41.59375 C 61.046875 -40.34375 64.4375 -38.207031 67.25 -35.1875 C 70.0625 -32.164062 71.46875 -27.992188 71.46875 -22.671875 C 71.46875 -15.484375 68.46875 -9.773438 62.46875 -5.546875 C 56.476562 -1.328125 48.164062 0.78125 37.53125 0.78125 Z M 37.53125 0.78125 "/></g></g></g><g clip-path="url(#13ad912954)"><path fill="#3b65f3" d="M 0.863281 94.589844 C 0.796875 89.152344 1.183594 83.703125 2.074219 78.308594 C 2.320312 76.816406 2.601562 75.320312 2.929688 73.820312 C 3.25 72.332031 3.609375 70.84375 4.003906 69.363281 C 4.390625 67.894531 4.828125 66.429688 5.292969 64.964844 C 5.765625 63.484375 6.265625 62.035156 6.800781 60.625 C 7.339844 59.183594 7.914062 57.773438 8.515625 56.378906 C 9.117188 54.972656 9.757812 53.585938 10.425781 52.21875 C 11.105469 50.847656 11.804688 49.496094 12.546875 48.175781 C 13.285156 46.839844 14.054688 45.527344 14.855469 44.238281 C 15.652344 42.949219 16.484375 41.675781 17.351562 40.421875 C 18.222656 39.171875 19.113281 37.941406 20.035156 36.734375 C 20.972656 35.519531 21.925781 34.332031 22.898438 33.183594 C 23.882812 32.03125 24.898438 30.894531 25.941406 29.777344 C 26.992188 28.65625 28.058594 27.570312 29.15625 26.507812 C 30.261719 25.445312 31.378906 24.40625 32.523438 23.40625 C 33.675781 22.398438 34.855469 21.417969 36.042969 20.46875 C 37.246094 19.519531 38.464844 18.59375 39.714844 17.707031 C 40.964844 16.8125 42.230469 15.949219 43.511719 15.128906 C 44.796875 14.292969 46.109375 13.496094 47.433594 12.730469 C 48.761719 11.964844 50.109375 11.230469 51.472656 10.53125 C 52.835938 9.824219 54.214844 9.15625 55.609375 8.527344 C 57.003906 7.890625 58.414062 7.292969 59.847656 6.730469 C 61.265625 6.160156 62.703125 5.636719 64.160156 5.136719 C 67.054688 4.148438 70.003906 3.300781 72.984375 2.601562 C 74.46875 2.253906 75.96875 1.941406 77.476562 1.664062 C 78.980469 1.390625 80.496094 1.144531 82.011719 0.941406 C 83.519531 0.742188 85.039062 0.578125 86.5625 0.449219 C 88.078125 0.320312 89.601562 0.230469 91.132812 0.183594 C 92.664062 0.128906 94.1875 0.105469 95.703125 0.128906 C 97.226562 0.152344 98.75 0.214844 100.28125 0.3125 C 101.792969 0.410156 103.308594 0.539062 104.839844 0.714844 C 106.347656 0.886719 107.863281 1.09375 109.375 1.34375 C 110.875 1.585938 112.382812 1.867188 113.882812 2.195312 C 115.378906 2.511719 116.871094 2.867188 118.355469 3.261719 C 119.835938 3.652344 121.304688 4.082031 122.785156 4.550781 C 124.261719 5.023438 125.714844 5.515625 127.140625 6.046875 C 128.582031 6.585938 130 7.15625 131.40625 7.753906 C 132.8125 8.355469 134.203125 8.992188 135.578125 9.660156 C 136.957031 10.332031 138.3125 11.039062 139.644531 11.765625 C 140.980469 12.503906 142.296875 13.269531 143.601562 14.066406 C 144.886719 14.863281 146.167969 15.691406 147.425781 16.554688 C 148.691406 17.417969 149.917969 18.308594 151.128906 19.226562 C 152.355469 20.160156 153.542969 21.105469 154.695312 22.078125 C 155.859375 23.054688 156.996094 24.066406 158.121094 25.105469 C 159.242188 26.152344 160.332031 27.214844 161.398438 28.304688 C 162.472656 29.40625 163.511719 30.523438 164.515625 31.660156 C 165.527344 32.8125 166.511719 33.980469 167.464844 35.171875 C 168.417969 36.363281 169.347656 37.578125 170.246094 38.820312 C 171.144531 40.066406 172.007812 41.324219 172.835938 42.597656 C 173.667969 43.882812 174.464844 45.1875 175.234375 46.507812 C 176.003906 47.828125 176.746094 49.167969 177.453125 50.527344 C 178.15625 51.886719 178.824219 53.257812 179.464844 54.648438 C 180.097656 56.035156 180.699219 57.4375 181.269531 58.859375 C 181.835938 60.277344 182.367188 61.710938 182.863281 63.160156 C 183.359375 64.609375 183.824219 66.058594 184.25 67.523438 C 184.667969 68.980469 185.058594 70.449219 185.40625 71.945312 C 185.757812 73.425781 186.078125 74.917969 186.351562 76.421875 C 186.632812 77.914062 186.871094 79.425781 187.078125 80.933594 C 187.28125 82.4375 187.441406 83.945312 187.570312 85.464844 C 187.703125 86.972656 187.792969 88.492188 187.847656 90.015625 C 187.898438 91.539062 187.914062 93.058594 187.890625 94.566406 C 187.867188 96.085938 187.808594 97.601562 187.707031 99.128906 C 187.617188 100.628906 187.480469 102.140625 187.304688 103.664062 C 187.136719 105.167969 186.925781 106.675781 186.679688 108.179688 C 186.429688 109.671875 186.148438 111.175781 185.828125 112.671875 C 185.507812 114.15625 185.148438 115.644531 184.753906 117.121094 C 184.355469 118.59375 183.921875 120.058594 183.457031 121.53125 C 182.984375 123.003906 182.480469 124.453125 181.949219 125.871094 C 181.40625 127.304688 180.84375 128.722656 180.234375 130.117188 C 179.632812 131.515625 178.992188 132.902344 178.320312 134.269531 C 177.644531 135.640625 176.941406 136.992188 176.210938 138.320312 C 175.472656 139.648438 174.695312 140.960938 173.894531 142.257812 C 173.09375 143.539062 172.265625 144.8125 171.394531 146.066406 C 170.535156 147.324219 169.636719 148.554688 168.714844 149.753906 C 167.777344 150.972656 166.824219 152.15625 165.847656 153.304688 C 164.863281 154.464844 163.851562 155.601562 162.808594 156.71875 C 161.765625 157.832031 160.691406 158.917969 159.59375 159.980469 C 158.488281 161.050781 157.367188 162.082031 156.226562 163.082031 C 155.074219 164.09375 153.902344 165.070312 152.703125 166.019531 C 151.5 166.96875 150.28125 167.890625 149.03125 168.789062 C 147.78125 169.683594 146.519531 170.539062 145.238281 171.367188 C 143.949219 172.195312 142.648438 172.992188 141.320312 173.757812 C 139.988281 174.53125 138.640625 175.257812 137.273438 175.964844 C 136.09375 176.570312 134.882812 177.164062 133.65625 177.726562 C 132.429688 178.292969 131.203125 178.832031 129.960938 179.339844 C 116.085938 185.03125 100.871094 187.019531 85.945312 185.84375 L 89.472656 185.683594 C 96.566406 185.347656 103.550781 184.371094 110.332031 182.738281 C 117.039062 181.140625 123.535156 178.902344 129.734375 176.035156 C 136.46875 172.914062 142.839844 169.054688 148.710938 164.457031 C 154.417969 159.988281 159.660156 154.8125 164.316406 148.949219 C 166.007812 146.816406 167.609375 144.609375 169.109375 142.316406 C 170.597656 140.058594 171.988281 137.71875 173.277344 135.308594 C 174.550781 132.933594 175.714844 130.484375 176.78125 127.964844 C 177.835938 125.476562 178.777344 122.925781 179.617188 120.308594 C 180.066406 118.90625 180.476562 117.503906 180.859375 116.089844 C 181.238281 114.671875 181.582031 113.253906 181.886719 111.835938 C 182.191406 110.402344 182.46875 108.976562 182.703125 107.539062 C 182.9375 106.09375 183.136719 104.652344 183.304688 103.214844 C 183.464844 101.769531 183.59375 100.320312 183.695312 98.871094 C 183.785156 97.421875 183.839844 95.964844 183.859375 94.515625 C 183.882812 93.050781 183.871094 91.59375 183.816406 90.152344 C 183.769531 88.703125 183.675781 87.246094 183.554688 85.804688 C 183.433594 84.347656 183.273438 82.898438 183.085938 81.464844 C 182.886719 80.015625 182.65625 78.574219 182.390625 77.140625 C 182.125 75.707031 181.828125 74.28125 181.492188 72.863281 C 181.148438 71.4375 180.78125 70.023438 180.371094 68.628906 C 179.96875 67.234375 179.527344 65.835938 179.054688 64.449219 C 178.582031 63.066406 178.070312 61.703125 177.527344 60.34375 C 176.980469 58.988281 176.410156 57.644531 175.800781 56.308594 C 175.1875 54.980469 174.542969 53.667969 173.871094 52.363281 C 173.203125 51.066406 172.492188 49.785156 171.753906 48.523438 C 171.023438 47.257812 170.253906 46.011719 169.453125 44.785156 C 168.652344 43.554688 167.824219 42.339844 166.96875 41.160156 C 166.117188 39.984375 165.230469 38.8125 164.316406 37.675781 C 163.402344 36.53125 162.464844 35.414062 161.5 34.316406 C 160.523438 33.222656 159.53125 32.144531 158.511719 31.105469 C 157.496094 30.066406 156.453125 29.042969 155.378906 28.046875 C 154.320312 27.0625 153.222656 26.097656 152.09375 25.148438 C 150.976562 24.203125 149.839844 23.292969 148.683594 22.417969 C 147.523438 21.539062 146.34375 20.679688 145.140625 19.855469 C 143.941406 19.035156 142.722656 18.246094 141.464844 17.472656 C 140.234375 16.714844 138.976562 15.976562 137.6875 15.273438 C 136.414062 14.574219 135.113281 13.898438 133.800781 13.261719 C 132.5 12.625 131.164062 12.019531 129.808594 11.433594 C 128.476562 10.867188 127.113281 10.320312 125.726562 9.804688 C 124.34375 9.292969 122.957031 8.816406 121.558594 8.371094 C 118.730469 7.472656 115.886719 6.722656 113.039062 6.109375 C 110.15625 5.492188 107.269531 5.023438 104.382812 4.695312 C 101.472656 4.371094 98.554688 4.1875 95.648438 4.144531 C 92.710938 4.097656 89.792969 4.203125 86.902344 4.445312 C 83.976562 4.6875 81.074219 5.078125 78.210938 5.605469 C 75.316406 6.140625 72.457031 6.804688 69.652344 7.617188 C 66.832031 8.421875 64.050781 9.371094 61.332031 10.453125 C 58.605469 11.53125 55.929688 12.746094 53.316406 14.089844 C 52.015625 14.765625 50.726562 15.460938 49.460938 16.199219 C 48.1875 16.933594 46.941406 17.691406 45.703125 18.488281 C 44.464844 19.285156 43.25 20.113281 42.0625 20.960938 C 40.882812 21.8125 39.707031 22.691406 38.566406 23.601562 C 37.414062 24.511719 36.296875 25.453125 35.191406 26.417969 C 34.09375 27.382812 33.011719 28.367188 31.96875 29.382812 C 30.921875 30.398438 29.894531 31.441406 28.898438 32.503906 C 27.90625 33.554688 26.9375 34.648438 25.984375 35.773438 C 25.035156 36.886719 24.121094 38.023438 23.242188 39.171875 C 22.359375 40.324219 21.5 41.5 20.667969 42.707031 C 19.84375 43.890625 19.050781 45.113281 18.273438 46.355469 C 17.511719 47.585938 16.773438 48.835938 16.066406 50.117188 C 15.363281 51.394531 14.6875 52.683594 14.046875 53.988281 C 13.40625 55.285156 12.796875 56.613281 12.210938 57.960938 C 11.636719 59.296875 11.089844 60.648438 10.570312 62.027344 C 10.0625 63.402344 9.574219 64.789062 9.132812 66.179688 C 8.683594 67.582031 8.269531 68.984375 7.890625 70.398438 C 7.515625 71.816406 7.171875 73.234375 6.867188 74.652344 C 6.554688 76.085938 6.28125 77.519531 6.046875 78.957031 C 5.222656 83.960938 4.878906 89.066406 4.980469 94.164062 C 5.222656 106.964844 8.226562 120.652344 14.511719 131.925781 C 16.378906 135.261719 18.671875 138.636719 21.324219 141.839844 C 42.910156 167.921875 74.109375 167.46875 86.957031 133.320312 C 88.40625 129.472656 89.648438 125.171875 90.644531 120.402344 C 91.886719 114.453125 92.429688 108.792969 92.488281 103.898438 C 92.503906 102.722656 92.480469 102.207031 91.863281 103.777344 C 87.183594 115.710938 77.074219 130.027344 64.175781 131.933594 C 56.175781 133.117188 48.007812 128.753906 46.496094 120.515625 C 46.101562 118.34375 46.222656 116.03125 46.96875 113.710938 C 47.304688 112.648438 47.777344 111.691406 48.144531 110.773438 C 48.636719 109.542969 48.84375 108.640625 48.632812 107.808594 C 48.410156 106.980469 47.785156 106.289062 46.75 105.460938 C 45.972656 104.847656 45.089844 104.242188 44.273438 103.484375 C 42.480469 101.820312 41.226562 99.863281 40.5 97.785156 C 37.757812 89.871094 42.71875 82.074219 50.269531 79.199219 C 58.832031 75.929688 68.648438 78.128906 76.335938 82.855469 C 85.433594 88.445312 84.398438 87.847656 77.835938 81.222656 C 70.988281 74.320312 64.808594 65.550781 65.636719 55.472656 C 66.300781 47.457031 72.425781 40.527344 80.824219 40.9375 C 83.03125 41.042969 85.273438 41.6875 87.375 42.941406 C 88.335938 43.511719 89.167969 44.183594 89.972656 44.746094 C 91.0625 45.503906 91.902344 45.914062 92.769531 45.890625 C 93.632812 45.871094 94.445312 45.414062 95.492188 44.601562 C 96.269531 43.996094 97.058594 43.265625 97.988281 42.652344 C 100.015625 41.285156 102.21875 40.519531 104.421875 40.292969 C 112.777344 39.4375 119.277344 46.011719 120.375 53.996094 C 122.097656 66.453125 114.234375 75.488281 105.96875 83.386719 C 100.558594 88.550781 104.742188 85.722656 110.660156 81.914062 C 118.660156 76.769531 128.050781 73.179688 137.632812 76.253906 C 145.328125 78.71875 150.710938 86.230469 148.402344 94.28125 C 147.792969 96.402344 146.648438 98.421875 144.949219 100.183594 C 144.179688 100.980469 143.324219 101.632812 142.585938 102.289062 C 141.597656 103.171875 141.007812 103.890625 140.832031 104.734375 C 140.660156 105.574219 140.917969 106.472656 141.480469 107.667969 C 141.894531 108.566406 142.425781 109.5 142.816406 110.539062 C 143.683594 112.8125 143.9375 115.121094 143.660156 117.304688 C 142.601562 125.613281 134.683594 130.414062 126.632812 129.664062 C 113.785156 128.472656 102.988281 115.128906 97.609375 103.550781 C 97.128906 102.535156 97.039062 102.261719 97.03125 103.589844 C 96.984375 108.792969 96.480469 114.855469 95.171875 121.203125 C 89.386719 149.230469 74.710938 163.5625 57.539062 164.949219 C 41.171875 166.269531 22.449219 155.84375 10.6875 133.949219 C 3.925781 121.371094 1.054688 108.882812 0.863281 94.589844 " fill-opacity="1" fill-rule="nonzero"/></g></svg>