<svg xmlns="http://www.w3.org/2000/svg" xmlns:xlink="http://www.w3.org/1999/xlink" width="500" zoomAndPan="magnify" viewBox="0 0 375 374.999991" height="500" preserveAspectRatio="xMidYMid meet" version="1.0"><defs><clipPath id="e549c76b8d"><path d="M 75 0 L 300 0 C 341.421875 0 375 33.578125 375 75 L 375 300 C 375 341.421875 341.421875 375 300 375 L 75 375 C 33.578125 375 0 341.421875 0 300 L 0 75 C 0 33.578125 33.578125 0 75 0 " clip-rule="nonzero"/></clipPath><clipPath id="f3bc1c46f5"><path d="M 56.304688 56.140625 L 318.804688 56.140625 L 318.804688 318 L 56.304688 318 Z M 56.304688 56.140625 " clip-rule="nonzero"/></clipPath></defs><g clip-path="url(#e549c76b8d)"><path fill="#3b65f4" d="M 0 0 L 374.414062 0 L 374.414062 374.414062 L 0 374.414062 Z M 0 0 " fill-opacity="1" fill-rule="nonzero"/></g><g clip-path="url(#f3bc1c46f5)"><path fill="#ffffff" d="M 56.398438 188.835938 C 56.300781 181.207031 56.847656 173.5625 58.097656 165.996094 C 58.4375 163.898438 58.835938 161.804688 59.292969 159.695312 C 59.742188 157.609375 60.246094 155.523438 60.800781 153.449219 C 61.347656 151.382812 61.957031 149.332031 62.609375 147.277344 C 63.269531 145.199219 63.976562 143.167969 64.722656 141.1875 C 65.484375 139.167969 66.285156 137.1875 67.128906 135.230469 C 67.972656 133.257812 68.871094 131.3125 69.8125 129.394531 C 70.761719 127.46875 71.746094 125.574219 72.785156 123.722656 C 73.820312 121.851562 74.898438 120.007812 76.023438 118.199219 C 77.144531 116.390625 78.308594 114.601562 79.527344 112.847656 C 80.746094 111.089844 81.996094 109.367188 83.289062 107.675781 C 84.605469 105.96875 85.941406 104.300781 87.308594 102.695312 C 88.6875 101.074219 90.109375 99.476562 91.574219 97.914062 C 93.050781 96.339844 94.546875 94.816406 96.085938 93.328125 C 97.636719 91.835938 99.207031 90.378906 100.808594 88.972656 C 102.425781 87.558594 104.082031 86.1875 105.75 84.855469 C 107.4375 83.527344 109.148438 82.226562 110.902344 80.980469 C 112.652344 79.726562 114.429688 78.511719 116.222656 77.363281 C 118.03125 76.191406 119.867188 75.074219 121.726562 74 C 123.589844 72.925781 125.480469 71.890625 127.394531 70.914062 C 129.308594 69.925781 131.242188 68.984375 133.199219 68.105469 C 135.152344 67.210938 137.132812 66.367188 139.140625 65.582031 C 141.128906 64.785156 143.148438 64.050781 145.191406 63.347656 C 149.253906 61.960938 153.390625 60.769531 157.566406 59.792969 C 159.652344 59.300781 161.757812 58.867188 163.875 58.472656 C 165.980469 58.089844 168.109375 57.746094 170.234375 57.460938 C 172.351562 57.183594 174.480469 56.949219 176.617188 56.769531 C 178.742188 56.585938 180.882812 56.460938 183.027344 56.394531 C 185.175781 56.320312 187.316406 56.289062 189.441406 56.320312 C 191.582031 56.355469 193.71875 56.4375 195.867188 56.578125 C 197.984375 56.714844 200.109375 56.894531 202.257812 57.140625 C 204.375 57.386719 206.503906 57.675781 208.617188 58.023438 C 210.722656 58.367188 212.839844 58.757812 214.945312 59.21875 C 217.039062 59.664062 219.136719 60.164062 221.21875 60.71875 C 223.292969 61.261719 225.355469 61.867188 227.429688 62.527344 C 229.503906 63.1875 231.546875 63.878906 233.542969 64.621094 C 235.566406 65.378906 237.554688 66.175781 239.53125 67.019531 C 241.5 67.859375 243.453125 68.753906 245.378906 69.6875 C 247.3125 70.636719 249.214844 71.625 251.085938 72.648438 C 252.957031 73.679688 254.804688 74.753906 256.632812 75.871094 C 258.441406 76.988281 260.234375 78.152344 262 79.363281 C 263.773438 80.578125 265.492188 81.824219 267.195312 83.109375 C 268.914062 84.417969 270.582031 85.75 272.195312 87.109375 C 273.832031 88.484375 275.425781 89.898438 277.003906 91.359375 C 278.578125 92.828125 280.105469 94.316406 281.601562 95.847656 C 283.109375 97.390625 284.5625 98.957031 285.972656 100.554688 C 287.394531 102.171875 288.773438 103.8125 290.109375 105.480469 C 291.445312 107.152344 292.75 108.855469 294.011719 110.601562 C 295.273438 112.347656 296.484375 114.113281 297.644531 115.898438 C 298.8125 117.699219 299.933594 119.53125 301.011719 121.382812 C 302.09375 123.234375 303.128906 125.117188 304.125 127.023438 C 305.109375 128.929688 306.046875 130.855469 306.945312 132.800781 C 307.832031 134.75 308.679688 136.71875 309.480469 138.707031 C 310.269531 140.699219 311.015625 142.710938 311.710938 144.742188 C 312.40625 146.777344 313.058594 148.808594 313.65625 150.863281 C 314.246094 152.90625 314.792969 154.96875 315.285156 157.066406 C 315.773438 159.144531 316.222656 161.238281 316.609375 163.347656 C 317.003906 165.441406 317.335938 167.5625 317.625 169.679688 C 317.914062 171.785156 318.136719 173.90625 318.316406 176.03125 C 318.5 178.152344 318.628906 180.28125 318.703125 182.417969 C 318.777344 184.558594 318.800781 186.6875 318.765625 188.804688 C 318.734375 190.933594 318.652344 193.0625 318.511719 195.199219 C 318.382812 197.308594 318.191406 199.425781 317.945312 201.566406 C 317.710938 203.671875 317.410156 205.789062 317.066406 207.898438 C 316.714844 209.996094 316.320312 212.101562 315.871094 214.199219 C 315.421875 216.285156 314.917969 218.371094 314.363281 220.445312 C 313.808594 222.507812 313.199219 224.5625 312.546875 226.628906 C 311.882812 228.695312 311.179688 230.726562 310.429688 232.714844 C 309.671875 234.726562 308.882812 236.71875 308.023438 238.675781 C 307.179688 240.632812 306.28125 242.582031 305.34375 244.496094 C 304.390625 246.425781 303.40625 248.320312 302.382812 250.179688 C 301.34375 252.042969 300.253906 253.882812 299.132812 255.707031 C 298.011719 257.503906 296.84375 259.292969 295.625 261.046875 C 294.417969 262.8125 293.15625 264.539062 291.863281 266.21875 C 290.550781 267.933594 289.210938 269.59375 287.84375 271.199219 C 286.464844 272.828125 285.042969 274.425781 283.578125 275.992188 C 282.113281 277.554688 280.609375 279.078125 279.070312 280.566406 C 277.519531 282.066406 275.949219 283.515625 274.34375 284.921875 C 272.730469 286.335938 271.085938 287.707031 269.40625 289.039062 C 267.71875 290.367188 266.007812 291.667969 264.253906 292.921875 C 262.5 294.179688 260.726562 295.382812 258.929688 296.542969 C 257.125 297.703125 255.296875 298.820312 253.4375 299.894531 C 251.566406 300.980469 249.675781 302 247.761719 302.992188 C 246.105469 303.84375 244.40625 304.671875 242.683594 305.460938 C 240.960938 306.257812 239.242188 307.015625 237.5 307.726562 C 218.035156 315.710938 196.691406 318.496094 175.75 316.847656 L 180.699219 316.625 C 190.648438 316.15625 200.453125 314.78125 209.964844 312.496094 C 219.371094 310.25 228.488281 307.109375 237.179688 303.085938 C 246.628906 298.710938 255.566406 293.296875 263.804688 286.847656 C 271.8125 280.578125 279.164062 273.320312 285.695312 265.09375 C 288.070312 262.101562 290.3125 259.003906 292.417969 255.789062 C 294.503906 252.617188 296.460938 249.339844 298.265625 245.957031 C 300.050781 242.625 301.6875 239.1875 303.183594 235.652344 C 304.660156 232.164062 305.984375 228.585938 307.160156 224.914062 C 307.789062 222.945312 308.367188 220.976562 308.902344 218.996094 C 309.4375 217.007812 309.917969 215.019531 310.34375 213.027344 C 310.773438 211.015625 311.15625 209.015625 311.488281 207.003906 C 311.820312 204.96875 312.097656 202.949219 312.332031 200.9375 C 312.558594 198.90625 312.738281 196.871094 312.878906 194.839844 C 313.003906 192.804688 313.082031 190.761719 313.113281 188.730469 C 313.144531 186.675781 313.125 184.632812 313.050781 182.609375 C 312.984375 180.578125 312.855469 178.535156 312.683594 176.511719 C 312.515625 174.46875 312.289062 172.433594 312.023438 170.421875 C 311.746094 168.390625 311.425781 166.371094 311.050781 164.359375 C 310.675781 162.34375 310.257812 160.34375 309.789062 158.355469 C 309.308594 156.355469 308.792969 154.375 308.21875 152.414062 C 307.652344 150.457031 307.03125 148.5 306.367188 146.550781 C 305.707031 144.613281 304.988281 142.699219 304.230469 140.792969 C 303.460938 138.890625 302.660156 137.003906 301.804688 135.132812 C 300.949219 133.269531 300.039062 131.429688 299.101562 129.597656 C 298.160156 127.777344 297.164062 125.980469 296.128906 124.210938 C 295.101562 122.433594 294.023438 120.691406 292.902344 118.964844 C 291.777344 117.242188 290.613281 115.539062 289.414062 113.878906 C 288.21875 112.230469 286.976562 110.589844 285.695312 108.992188 C 284.410156 107.386719 283.097656 105.820312 281.742188 104.277344 C 280.375 102.746094 278.984375 101.234375 277.550781 99.777344 C 276.128906 98.320312 274.664062 96.882812 273.15625 95.488281 C 271.671875 94.105469 270.132812 92.753906 268.550781 91.421875 C 266.980469 90.089844 265.386719 88.816406 263.761719 87.589844 C 262.136719 86.355469 260.480469 85.152344 258.792969 83.992188 C 257.113281 82.84375 255.402344 81.738281 253.640625 80.652344 C 251.910156 79.585938 250.144531 78.554688 248.339844 77.566406 C 246.554688 76.585938 244.726562 75.640625 242.886719 74.746094 C 241.058594 73.851562 239.1875 73 237.285156 72.179688 C 235.417969 71.382812 233.503906 70.617188 231.558594 69.890625 C 229.621094 69.175781 227.675781 68.507812 225.710938 67.878906 C 221.746094 66.625 217.757812 65.570312 213.757812 64.707031 C 209.71875 63.847656 205.667969 63.1875 201.617188 62.730469 C 197.535156 62.269531 193.441406 62.015625 189.367188 61.953125 C 185.242188 61.886719 181.148438 62.039062 177.097656 62.378906 C 172.992188 62.71875 168.921875 63.261719 164.902344 64.003906 C 160.839844 64.75 156.832031 65.6875 152.898438 66.828125 C 148.941406 67.953125 145.039062 69.285156 141.226562 70.804688 C 137.398438 72.316406 133.644531 74.019531 129.980469 75.90625 C 128.152344 76.851562 126.347656 77.832031 124.570312 78.863281 C 122.785156 79.894531 121.035156 80.960938 119.300781 82.078125 C 117.558594 83.195312 115.859375 84.355469 114.191406 85.546875 C 112.535156 86.738281 110.890625 87.972656 109.285156 89.25 C 107.671875 90.527344 106.101562 91.847656 104.550781 93.199219 C 103.011719 94.550781 101.496094 95.933594 100.03125 97.359375 C 98.566406 98.785156 97.121094 100.246094 95.722656 101.734375 C 94.332031 103.214844 92.976562 104.746094 91.640625 106.324219 C 90.304688 107.886719 89.019531 109.484375 87.792969 111.089844 C 86.550781 112.707031 85.34375 114.359375 84.179688 116.050781 C 83.023438 117.710938 81.914062 119.425781 80.820312 121.167969 C 79.753906 122.894531 78.714844 124.648438 77.722656 126.445312 C 76.738281 128.238281 75.789062 130.046875 74.890625 131.875 C 73.992188 133.695312 73.136719 135.558594 72.3125 137.453125 C 71.511719 139.324219 70.742188 141.21875 70.015625 143.15625 C 69.300781 145.082031 68.617188 147.03125 67.996094 148.976562 C 67.363281 150.949219 66.789062 152.914062 66.253906 154.898438 C 65.730469 156.886719 65.25 158.875 64.820312 160.867188 C 64.382812 162.878906 63.996094 164.890625 63.667969 166.902344 C 62.511719 173.925781 62.03125 181.085938 62.167969 188.238281 C 62.511719 206.195312 66.722656 225.394531 75.542969 241.210938 C 78.160156 245.890625 81.378906 250.628906 85.097656 255.121094 C 115.378906 291.710938 159.148438 291.070312 177.171875 243.167969 C 179.203125 237.773438 180.945312 231.738281 182.34375 225.042969 C 184.085938 216.699219 184.847656 208.757812 184.929688 201.894531 C 184.953125 200.246094 184.921875 199.519531 184.054688 201.722656 C 177.492188 218.464844 163.308594 238.546875 145.210938 241.21875 C 133.988281 242.878906 122.53125 236.761719 120.414062 225.203125 C 119.859375 222.160156 120.027344 218.914062 121.074219 215.65625 C 121.546875 214.167969 122.210938 212.824219 122.722656 211.535156 C 123.417969 209.8125 123.707031 208.546875 123.40625 207.375 C 123.097656 206.214844 122.21875 205.246094 120.765625 204.085938 C 119.675781 203.226562 118.4375 202.375 117.292969 201.308594 C 114.78125 198.980469 113.015625 196.234375 112 193.316406 C 108.152344 182.214844 115.113281 171.273438 125.703125 167.242188 C 137.71875 162.65625 151.484375 165.742188 162.269531 172.371094 C 175.035156 180.214844 173.582031 179.375 164.378906 170.082031 C 154.769531 160.398438 146.097656 148.09375 147.265625 133.960938 C 148.195312 122.710938 156.789062 112.996094 168.566406 113.570312 C 171.667969 113.71875 174.808594 114.625 177.761719 116.378906 C 179.105469 117.179688 180.273438 118.125 181.40625 118.914062 C 182.933594 119.976562 184.109375 120.550781 185.328125 120.519531 C 186.535156 120.488281 187.679688 119.847656 189.144531 118.710938 C 190.234375 117.859375 191.34375 116.835938 192.648438 115.976562 C 195.492188 114.058594 198.582031 112.984375 201.671875 112.664062 C 213.394531 111.460938 222.515625 120.691406 224.054688 131.886719 C 226.46875 149.359375 215.4375 162.035156 203.839844 173.117188 C 196.25 180.363281 202.121094 176.394531 210.425781 171.050781 C 221.648438 163.835938 234.816406 158.800781 248.265625 163.113281 C 259.058594 166.570312 266.605469 177.109375 263.367188 188.398438 C 262.511719 191.378906 260.910156 194.210938 258.523438 196.679688 C 257.445312 197.796875 256.25 198.710938 255.210938 199.636719 C 253.824219 200.871094 253 201.882812 252.753906 203.066406 C 252.507812 204.246094 252.871094 205.503906 253.660156 207.183594 C 254.238281 208.441406 254.988281 209.75 255.53125 211.207031 C 256.75 214.398438 257.105469 217.636719 256.71875 220.699219 C 255.234375 232.355469 244.128906 239.09375 232.828125 238.039062 C 214.808594 236.367188 199.660156 217.648438 192.113281 201.40625 C 191.441406 199.980469 191.3125 199.59375 191.300781 201.457031 C 191.238281 208.757812 190.53125 217.261719 188.695312 226.171875 C 180.582031 265.484375 159.992188 285.589844 135.902344 287.539062 C 112.941406 289.390625 86.679688 274.765625 70.175781 244.050781 C 60.695312 226.40625 56.664062 208.886719 56.398438 188.835938 " fill-opacity="1" fill-rule="nonzero"/></g></svg>