<?xml version="1.0" standalone="no"?>
<!DOCTYPE svg PUBLIC "-//W3C//DTD SVG 20010904//EN"
 "http://www.w3.org/TR/2001/REC-SVG-20010904/DTD/svg10.dtd">
<svg version="1.0" xmlns="http://www.w3.org/2000/svg"
 width="1000.000000pt" height="1000.000000pt" viewBox="0 0 1000.000000 1000.000000"
 preserveAspectRatio="xMidYMid meet">
<metadata>
Created by potrace 1.14, written by Peter Selinger 2001-2017
</metadata>
<g transform="translate(0.000000,1000.000000) scale(0.100000,-0.100000)"
fill="#000000" stroke="none">
<path d="M1839 9996 c-2 -2 -38 -7 -79 -11 -41 -4 -82 -9 -90 -10 -133 -29
-180 -40 -265 -66 -55 -17 -104 -35 -109 -40 -6 -5 -17 -9 -25 -9 -8 0 -73
-29 -145 -64 -409 -200 -721 -512 -921 -921 -101 -206 -169 -437 -192 -650
-11 -93 -10 -6372 0 -6455 73 -589 391 -1106 881 -1434 97 -65 300 -171 386
-201 180 -65 313 -99 435 -112 85 -10 6545 -9 6595 1 152 29 210 43 315 78
311 102 601 287 830 528 279 293 478 710 523 1095 9 77 7 6525 -2 6585 -16
111 -88 375 -107 395 -5 5 -9 15 -9 23 0 15 -124 275 -140 295 -6 7 -32 46
-58 87 -87 135 -252 319 -382 425 -25 20 -54 44 -65 54 -43 36 -195 131 -285
179 -152 81 -385 166 -509 187 -19 3 -37 8 -41 10 -3 2 -33 7 -65 10 -33 4
-82 11 -110 16 -48 7 -6358 13 -6366 5z"/>
</g>
</svg>
